<?xml version="1.0" encoding="utf-8"?>
<!-- Generator: Adobe Illustrator 23.0.1, SVG Export Plug-In . SVG Version: 6.00 Build 0)  -->
<svg version="1.1" id="Capa_1" xmlns="http://www.w3.org/2000/svg" xmlns:xlink="http://www.w3.org/1999/xlink" x="0px" y="0px"
	 viewBox="0 0 512 512" style="enable-background:new 0 0 512 512;" xml:space="preserve">
<style type="text/css">
	.st0{fill:#FFFFFF;}
</style>
<g>
	<g>
		<path class="st0" d="M420.4,391.9c-7.8-7.8-20.4-7.8-28.3-0.1C355,428.7,306.7,449,256,449c-106.4,0-193-86.6-193-193
			S149.6,63,256,63s193,86.6,193,193c0,19.8-3,39.3-8.9,58c-3.3,10.5,2.5,21.8,13.1,25.1c10.5,3.3,21.8-2.5,25.1-13.1
			c7.1-22.6,10.7-46.1,10.7-70c0-55.5-19.3-108.1-54.7-150l71.9-71.9c7.8-7.8,7.8-20.5,0-28.3s-20.5-7.8-28.3,0L406,77.7
			C364.1,42.3,311.5,23,256,23c-55.5,0-108.1,19.3-150,54.7L34.1,5.9C26.3-2,13.7-2,5.9,5.9s-7.8,20.5,0,28.3L77.7,106
			C42.3,147.9,23,200.5,23,256c0,55.5,19.3,108.1,54.7,150L5.9,477.9c-7.8,7.8-7.8,20.5,0,28.3c3.9,3.9,9,5.9,14.1,5.9
			s10.2-2,14.1-5.9l71.8-71.8c41.9,35.4,94.5,54.7,150,54.7c54.8,0,107.2-19.5,149.6-55.3l72.3,72.4c3.9,3.9,9,5.9,14.2,5.9
			c5.1,0,10.2-1.9,14.1-5.8c7.8-7.8,7.8-20.5,0-28.3L420.4,391.9z"/>
	</g>
</g>
</svg>
